<svg width="165" height="30" viewBox="0 0 165 30" fill="none" xmlns="http://www.w3.org/2000/svg"><path d="M0 0V30H30V0H0ZM13.8525 16.8579L10.4918 22.4863H2.97814L11.9399 7.48634H13.8251L13.8525 16.8579ZM19.4809 22.4863L16.1202 16.8579V7.48634H18.0055L26.9672 22.4863H19.4809Z" fill="#D20014"></path><path d="M37 7.5094H43.5105C44.2522 7.5094 44.9939 7.59136 45.7081 7.72798C46.4498 7.89191 47.0816 8.13781 47.6585 8.52032C48.2354 8.90284 48.7024 9.39464 49.0595 10.0231C49.4166 10.6515 49.5814 11.4438 49.5814 12.4001C49.5814 13.3291 49.3342 14.1214 48.8947 14.8318C48.4551 15.5422 47.7958 16.0613 46.9443 16.4711L50.7627 22.5367H44.9389L42.082 17.1269H41.9172V22.4821H37V7.5094ZM41.8897 13.8482H42.8787C43.0435 13.8482 43.2358 13.8209 43.4281 13.8209C43.6204 13.8209 43.8126 13.7389 44.0049 13.6569C44.1972 13.575 44.3071 13.4384 44.4445 13.2744C44.5543 13.1105 44.6093 12.8919 44.6093 12.6187C44.6093 12.3455 44.5543 12.1542 44.4445 11.9903C44.3346 11.8263 44.2247 11.7171 44.0599 11.6351C43.8951 11.5531 43.7577 11.5258 43.5379 11.4711C43.3731 11.4438 43.1808 11.4438 43.016 11.4438H41.8073L41.8897 13.8482Z" fill="#D20014"></path><path d="M50.1567 14.9178C50.1567 13.7156 50.3764 12.6227 50.7885 11.6664C51.2006 10.7101 51.8049 9.89046 52.5466 9.2074C53.2883 8.52434 54.1948 8.00522 55.2112 7.65002C56.2276 7.26751 57.3264 7.10358 58.5351 7.10358C59.7438 7.10358 60.8427 7.26751 61.8591 7.65002C62.8755 8.03254 63.782 8.52434 64.5237 9.2074C65.2654 9.89046 65.8697 10.7101 66.3093 11.6664C66.7488 12.6227 66.9411 13.7156 66.9411 14.9178C66.9411 16.12 66.7213 17.2129 66.3093 18.1965C65.8697 19.1801 65.2929 20.0271 64.5237 20.7375C63.782 21.4478 62.8755 21.967 61.8591 22.3768C60.8427 22.7593 59.7438 22.9506 58.5351 22.9506C57.3264 22.9506 56.2276 22.7593 55.2112 22.3768C54.1948 21.9943 53.2883 21.4478 52.5466 20.7375C51.8049 20.0271 51.2006 19.1801 50.7885 18.1965C50.3764 17.2129 50.1567 16.12 50.1567 14.9178ZM55.5409 14.9178C55.5409 15.4096 55.6233 15.8467 55.7606 16.2566C55.9255 16.6664 56.1178 17.0216 56.365 17.3222C56.6122 17.6227 56.9419 17.8413 57.299 18.0052C57.6836 18.1692 58.0681 18.2511 58.5077 18.2511C58.9472 18.2511 59.3318 18.1692 59.6889 18.0052C60.046 17.8413 60.3482 17.6227 60.6229 17.3222C60.8976 17.0216 61.0899 16.6664 61.2547 16.2566C61.4195 15.8467 61.4745 15.3823 61.4745 14.9178C61.4745 14.4533 61.3921 13.9888 61.2547 13.579C61.0899 13.1691 60.8976 12.8413 60.6229 12.5681C60.3482 12.2948 60.0185 12.0763 59.6889 11.9123C59.3593 11.7484 58.9472 11.6664 58.5077 11.6664C58.0681 11.6664 57.6836 11.7484 57.299 11.9123C56.9144 12.0763 56.6122 12.2948 56.365 12.5681C56.1178 12.8413 55.898 13.1691 55.7606 13.579C55.6233 13.9888 55.5409 14.426 55.5409 14.9178Z" fill="#D20014"></path><path d="M67.4915 15.0003C67.4915 13.7981 67.7112 12.7052 68.1233 11.7489C68.5628 10.7653 69.1397 9.94561 69.8814 9.23522C70.6231 8.55216 71.5021 8.00572 72.4911 7.6232C73.5075 7.24069 74.5513 7.04943 75.7051 7.04943C76.8588 7.04943 77.9577 7.24069 79.0015 7.6232C80.0454 8.00572 80.9245 8.49752 81.6112 9.12594L78.5071 12.8418C78.2324 12.4593 77.8752 12.186 77.4357 11.9948C76.9962 11.8035 76.5292 11.6942 76.0073 11.6942C75.5677 11.6942 75.1832 11.7762 74.7986 11.9128C74.414 12.0768 74.1118 12.2953 73.8371 12.5686C73.5624 12.8418 73.3426 13.197 73.1778 13.5795C73.013 13.9893 72.9306 14.4265 72.9306 14.9183C72.9306 15.4101 73.013 15.8472 73.1778 16.2571C73.3426 16.6396 73.5624 16.9948 73.8371 17.268C74.1118 17.5412 74.4415 17.7598 74.7986 17.9238C75.1832 18.0877 75.5677 18.1423 75.9523 18.1423C76.5567 18.1423 77.0237 18.033 77.4357 17.7871C77.8478 17.5412 78.1774 17.268 78.4247 16.9401L81.5288 20.656C80.842 21.3391 80.0179 21.8582 79.0015 22.2953C78.0126 22.7052 76.8863 22.8964 75.6227 22.8964C74.4689 22.8964 73.425 22.7052 72.4086 22.3227C71.3922 21.9401 70.5407 21.3937 69.799 20.6833C69.0573 19.9729 68.4804 19.1533 68.0409 18.1697C67.6837 17.268 67.4915 16.2024 67.4915 15.0003Z" fill="#D20014"></path><path d="M87.132 16.5258H87.1045V22.5094H82.1873V7.5094H87.1045V13.0285H87.132L91.1427 7.5094H97.1037L91.4174 14.3673L97.3784 22.5094H91.1427L87.132 16.5258Z" fill="#D20014"></path><path d="M106.172 22.5094H101.063L96.9421 7.5094H102.299L103.92 15.9247H104.002L105.76 7.5094H111.062L112.957 15.952H113.04L114.688 7.53672H119.88L115.677 22.5094H110.567L108.452 14.0395H108.37L106.172 22.5094Z" fill="#D20014"></path><path d="M119.082 14.9178C119.082 13.7156 119.301 12.6227 119.713 11.6664C120.153 10.7101 120.73 9.89046 121.471 9.2074C122.213 8.52434 123.12 8.00522 124.136 7.65002C125.153 7.26751 126.251 7.10358 127.46 7.10358C128.669 7.10358 129.768 7.26751 130.784 7.65002C131.8 8.03254 132.707 8.52434 133.449 9.2074C134.19 9.89046 134.795 10.7101 135.234 11.6664C135.674 12.6227 135.866 13.7156 135.866 14.9178C135.866 16.12 135.646 17.2129 135.234 18.1965C134.795 19.1801 134.218 20.0271 133.449 20.7375C132.679 21.4478 131.8 21.967 130.784 22.3768C129.768 22.7593 128.669 22.9506 127.46 22.9506C126.251 22.9506 125.153 22.7593 124.136 22.3768C123.12 21.9943 122.213 21.4478 121.471 20.7375C120.73 20.0271 120.125 19.1801 119.713 18.1965C119.301 17.2129 119.082 16.12 119.082 14.9178ZM124.466 14.9178C124.466 15.4096 124.548 15.8467 124.686 16.2566C124.85 16.6664 125.043 17.0216 125.29 17.3222C125.537 17.6227 125.867 17.8413 126.224 18.0052C126.608 18.1692 126.993 18.2511 127.433 18.2511C127.872 18.2511 128.257 18.1692 128.614 18.0052C128.971 17.8413 129.273 17.6227 129.548 17.3222C129.822 17.0216 130.015 16.6664 130.18 16.2566C130.344 15.8467 130.399 15.3823 130.399 14.9178C130.399 14.4533 130.317 13.9888 130.18 13.579C130.015 13.1691 129.822 12.8413 129.548 12.5681C129.273 12.2948 128.943 12.0763 128.614 11.9123C128.284 11.7484 127.872 11.6664 127.433 11.6664C126.993 11.6664 126.608 11.7484 126.224 11.9123C125.839 12.0763 125.537 12.2948 125.29 12.5681C125.043 12.8413 124.823 13.1691 124.686 13.579C124.548 14.0161 124.466 14.426 124.466 14.9178Z" fill="#D20014"></path><path d="M136.416 14.9178C136.416 13.7156 136.636 12.6227 137.048 11.6664C137.46 10.7101 138.065 9.89046 138.806 9.2074C139.548 8.52434 140.454 8.00522 141.471 7.65002C142.487 7.26751 143.586 7.10358 144.795 7.10358C146.003 7.10358 147.102 7.26751 148.119 7.65002C149.135 8.03254 150.042 8.52434 150.783 9.2074C151.525 9.89046 152.129 10.7101 152.569 11.6664C153.008 12.6227 153.201 13.7156 153.201 14.9178C153.201 16.12 152.981 17.2129 152.569 18.1965C152.129 19.1801 151.552 20.0271 150.783 20.7375C150.042 21.4478 149.135 21.967 148.119 22.3768C147.102 22.7593 146.003 22.9506 144.795 22.9506C143.586 22.9506 142.487 22.7593 141.471 22.3768C140.454 21.9943 139.548 21.4478 138.806 20.7375C138.065 20.0271 137.46 19.1801 137.048 18.1965C136.636 17.2129 136.416 16.12 136.416 14.9178ZM141.8 14.9178C141.8 15.4096 141.883 15.8467 142.02 16.2566C142.185 16.6664 142.377 17.0216 142.625 17.3222C142.872 17.6227 143.201 17.8413 143.559 18.0052C143.943 18.1692 144.328 18.2511 144.767 18.2511C145.207 18.2511 145.591 18.1692 145.949 18.0052C146.306 17.8413 146.608 17.6227 146.883 17.3222C147.157 17.0216 147.35 16.6664 147.514 16.2566C147.679 15.8467 147.734 15.3823 147.734 14.9178C147.734 14.4533 147.652 13.9888 147.514 13.579C147.35 13.1691 147.157 12.8413 146.883 12.5681C146.608 12.2948 146.278 12.0763 145.949 11.9123C145.619 11.7484 145.207 11.6664 144.767 11.6664C144.328 11.6664 143.943 11.7484 143.559 11.9123C143.174 12.0763 142.872 12.2948 142.625 12.5681C142.377 12.8413 142.158 13.1691 142.02 13.579C141.855 14.0161 141.8 14.426 141.8 14.9178Z" fill="#D20014"></path><path d="M154.052 7.5094H159.161V18.1651H164.161V22.5094H154.052V7.5094Z" fill="#D20014"></path><path d="M160.535 9.29007C160.535 9.04417 160.563 8.79826 160.673 8.55236C160.783 8.33378 160.92 8.14252 161.057 7.97859C161.222 7.81465 161.415 7.67804 161.634 7.59608C161.854 7.48679 162.074 7.45947 162.348 7.45947C162.596 7.45947 162.816 7.48679 163.063 7.59608C163.283 7.70537 163.475 7.81465 163.64 7.97859C163.804 8.14252 163.942 8.33378 164.024 8.55236C164.134 8.77094 164.162 8.98952 164.162 9.26275C164.162 9.50865 164.134 9.75455 164.024 10.0005C163.914 10.219 163.777 10.4103 163.64 10.5742C163.475 10.7382 163.283 10.8748 163.063 10.9567C162.843 11.066 162.623 11.0933 162.348 11.0933C162.101 11.0933 161.854 11.066 161.634 10.9567C161.415 10.8474 161.222 10.7382 161.057 10.5742C160.893 10.4103 160.755 10.219 160.673 10.0005C160.59 9.78187 160.535 9.53597 160.535 9.29007ZM160.81 9.29007C160.81 9.50865 160.838 9.6999 160.92 9.89116C161.002 10.0551 161.112 10.2464 161.25 10.383C161.387 10.5196 161.552 10.6289 161.744 10.6835C161.909 10.7655 162.129 10.7928 162.348 10.7928C162.568 10.7928 162.761 10.7655 162.953 10.6835C163.118 10.6015 163.31 10.4923 163.447 10.3556C163.585 10.219 163.695 10.0551 163.777 9.86384C163.859 9.67258 163.887 9.48132 163.887 9.26275C163.887 9.04417 163.859 8.85291 163.777 8.66165C163.695 8.47039 163.585 8.30646 163.447 8.16985C163.31 8.03324 163.145 7.92395 162.953 7.8693C162.788 7.78733 162.568 7.76001 162.348 7.76001C162.129 7.76001 161.936 7.78733 161.744 7.8693C161.579 7.95127 161.387 8.06056 161.25 8.16985C161.112 8.30646 161.002 8.47039 160.92 8.66165C160.865 8.85291 160.81 9.07149 160.81 9.29007ZM161.662 8.25181H162.431C162.678 8.25181 162.87 8.27914 162.98 8.38843C163.09 8.49771 163.145 8.63433 163.145 8.82559C163.145 9.01684 163.09 9.12613 162.98 9.23542C162.87 9.31739 162.733 9.37204 162.596 9.39936L163.2 10.3283H162.898L162.321 9.45401H161.936V10.3283H161.634V8.25181H161.662ZM161.964 9.15346H162.321C162.403 9.15346 162.458 9.15346 162.541 9.15346C162.596 9.15346 162.678 9.12613 162.706 9.12613C162.733 9.12613 162.815 9.07149 162.815 9.01685C162.843 8.98952 162.843 8.90755 162.843 8.82559C162.843 8.74362 162.815 8.68897 162.815 8.66165C162.815 8.63433 162.761 8.57968 162.706 8.55236C162.678 8.52504 162.596 8.52504 162.541 8.52504C162.486 8.52504 162.431 8.52504 162.376 8.52504H161.936L161.964 9.15346Z" fill="#D20014"></path></svg>